<svg version="1.1" viewBox="0.0 0.0 773.9737532808399 509.90551181102364" fill="none" stroke="none" stroke-linecap="square" stroke-miterlimit="10" xmlns:xlink="http://www.w3.org/1999/xlink" xmlns="http://www.w3.org/2000/svg"><clipPath id="p.0"><path d="m0 0l773.97375 0l0 509.90552l-773.97375 0l0 -509.90552z" clip-rule="nonzero"/></clipPath><g clip-path="url(#p.0)"><path fill="#000000" fill-opacity="0.0" d="m0 0l773.97375 0l0 509.90552l-773.97375 0z" fill-rule="evenodd"/><path fill="#cfe2f3" d="m384.0 178.07874l0 0c0 -8.836548 7.163452 -16.0 16.0 -16.0l0 0c4.243469 0 8.313141 1.6857147 11.313721 4.6862946c3.0005798 3.0005798 4.6862793 7.0702515 4.6862793 11.313705l0 0c0 8.836563 -7.163452 16.0 -16.0 16.0l0 0c-8.836548 0 -16.0 -7.163437 -16.0 -16.0z" fill-rule="evenodd"/><path stroke="#000000" stroke-width="1.0" stroke-linejoin="round" stroke-linecap="butt" d="m384.0 178.07874l0 0c0 -8.836548 7.163452 -16.0 16.0 -16.0l0 0c4.243469 0 8.313141 1.6857147 11.313721 4.6862946c3.0005798 3.0005798 4.6862793 7.0702515 4.6862793 11.313705l0 0c0 8.836563 -7.163452 16.0 -16.0 16.0l0 0c-8.836548 0 -16.0 -7.163437 -16.0 -16.0z" fill-rule="evenodd"/><path fill="#cfe2f3" d="m344.44095 345.25986l0 0c0 -8.836578 7.163452 -16.0 16.0 -16.0l0 0c4.243469 0 8.31311 1.6856995 11.31369 4.6862793c3.0006104 3.0005798 4.68631 7.0702515 4.68631 11.313721l0 0c0 8.836548 -7.163452 16.0 -16.0 16.0l0 0c-8.836548 0 -16.0 -7.163452 -16.0 -16.0z" fill-rule="evenodd"/><path stroke="#000000" stroke-width="1.0" stroke-linejoin="round" stroke-linecap="butt" d="m344.44095 345.25986l0 0c0 -8.836578 7.163452 -16.0 16.0 -16.0l0 0c4.243469 0 8.31311 1.6856995 11.31369 4.6862793c3.0006104 3.0005798 4.68631 7.0702515 4.68631 11.313721l0 0c0 8.836548 -7.163452 16.0 -16.0 16.0l0 0c-8.836548 0 -16.0 -7.163452 -16.0 -16.0z" fill-rule="evenodd"/><path fill="#cfe2f3" d="m193.25984 345.25986l0 0c0 -8.836578 7.163452 -16.0 16.0 -16.0l0 0c4.243469 0 8.313126 1.6856995 11.313705 4.6862793c3.0005798 3.0005798 4.6862946 7.0702515 4.6862946 11.313721l0 0c0 8.836548 -7.163437 16.0 -16.0 16.0l0 0c-8.836548 0 -16.0 -7.163452 -16.0 -16.0z" fill-rule="evenodd"/><path stroke="#000000" stroke-width="1.0" stroke-linejoin="round" stroke-linecap="butt" d="m193.25984 345.25986l0 0c0 -8.836578 7.163452 -16.0 16.0 -16.0l0 0c4.243469 0 8.313126 1.6856995 11.313705 4.6862793c3.0005798 3.0005798 4.6862946 7.0702515 4.6862946 11.313721l0 0c0 8.836548 -7.163437 16.0 -16.0 16.0l0 0c-8.836548 0 -16.0 -7.163452 -16.0 -16.0z" fill-rule="evenodd"/><path fill="#cfe2f3" d="m420.0315 345.25986l0 0c0 -8.836578 7.163452 -16.0 16.0 -16.0l0 0c4.243469 0 8.313141 1.6856995 11.313721 4.6862793c3.0005798 3.0005798 4.6862793 7.0702515 4.6862793 11.313721l0 0c0 8.836548 -7.163452 16.0 -16.0 16.0l0 0c-8.836548 0 -16.0 -7.163452 -16.0 -16.0z" fill-rule="evenodd"/><path stroke="#000000" stroke-width="1.0" stroke-linejoin="round" stroke-linecap="butt" d="m420.0315 345.25986l0 0c0 -8.836578 7.163452 -16.0 16.0 -16.0l0 0c4.243469 0 8.313141 1.6856995 11.313721 4.6862793c3.0005798 3.0005798 4.6862793 7.0702515 4.6862793 11.313721l0 0c0 8.836548 -7.163452 16.0 -16.0 16.0l0 0c-8.836548 0 -16.0 -7.163452 -16.0 -16.0z" fill-rule="evenodd"/><path fill="#cfe2f3" d="m571.2126 345.25986l0 0c0 -8.836578 7.163452 -16.0 16.0 -16.0l0 0c4.243469 0 8.31311 1.6856995 11.313721 4.6862793c3.0006104 3.0005798 4.6862793 7.0702515 4.6862793 11.313721l0 0c0 8.836548 -7.163452 16.0 -16.0 16.0l0 0c-8.836548 0 -16.0 -7.163452 -16.0 -16.0z" fill-rule="evenodd"/><path stroke="#000000" stroke-width="1.0" stroke-linejoin="round" stroke-linecap="butt" d="m571.2126 345.25986l0 0c0 -8.836578 7.163452 -16.0 16.0 -16.0l0 0c4.243469 0 8.31311 1.6856995 11.313721 4.6862793c3.0006104 3.0005798 4.6862793 7.0702515 4.6862793 11.313721l0 0c0 8.836548 -7.163452 16.0 -16.0 16.0l0 0c-8.836548 0 -16.0 -7.163452 -16.0 -16.0z" fill-rule="evenodd"/><path fill="#000000" fill-opacity="0.0" d="m411.31372 189.39246l164.59839 144.56693" fill-rule="evenodd"/><path stroke="#000000" stroke-width="1.0" stroke-linejoin="round" stroke-linecap="butt" d="m411.31372 189.39246l164.59839 144.56693" fill-rule="evenodd"/><path fill="#000000" fill-opacity="0.0" d="m388.68628 189.39246l-168.12598 144.56693" fill-rule="evenodd"/><path stroke="#000000" stroke-width="1.0" stroke-linejoin="round" stroke-linecap="butt" d="m388.68628 189.39246l-168.12598 144.56693" fill-rule="evenodd"/><path fill="#cfe2f3" d="m268.8504 275.47244l0 0c0 -8.836548 7.1634216 -16.0 16.0 -16.0l0 0c4.243469 0 8.31311 1.6856995 11.31369 4.6862793c3.0005798 3.0005798 4.68631 7.0702515 4.68631 11.313721l0 0c0 8.836548 -7.163452 16.0 -16.0 16.0l0 0c-8.836578 0 -16.0 -7.163452 -16.0 -16.0z" fill-rule="evenodd"/><path stroke="#000000" stroke-width="1.0" stroke-linejoin="round" stroke-linecap="butt" d="m268.8504 275.47244l0 0c0 -8.836548 7.1634216 -16.0 16.0 -16.0l0 0c4.243469 0 8.31311 1.6856995 11.31369 4.6862793c3.0005798 3.0005798 4.68631 7.0702515 4.68631 11.313721l0 0c0 8.836548 -7.163452 16.0 -16.0 16.0l0 0c-8.836578 0 -16.0 -7.163452 -16.0 -16.0z" fill-rule="evenodd"/><path fill="#cfe2f3" d="m495.62204 275.47244l0 0c0 -8.836548 7.163452 -16.0 16.0 -16.0l0 0c4.2434998 0 8.313141 1.6856995 11.31369 4.6862793c3.0006104 3.0005798 4.6863403 7.0702515 4.6863403 11.313721l0 0c0 8.836548 -7.163452 16.0 -16.00003 16.0l0 0c-8.836548 0 -16.0 -7.163452 -16.0 -16.0z" fill-rule="evenodd"/><path stroke="#000000" stroke-width="1.0" stroke-linejoin="round" stroke-linecap="butt" d="m495.62204 275.47244l0 0c0 -8.836548 7.163452 -16.0 16.0 -16.0l0 0c4.2434998 0 8.313141 1.6856995 11.31369 4.6862793c3.0006104 3.0005798 4.6863403 7.0702515 4.6863403 11.313721l0 0c0 8.836548 -7.163452 16.0 -16.00003 16.0l0 0c-8.836548 0 -16.0 -7.163452 -16.0 -16.0z" fill-rule="evenodd"/><path fill="#000000" fill-opacity="0.0" d="m346.65228 334.81766l-50.48819 -48.031494" fill-rule="evenodd"/><path stroke="#000000" stroke-width="1.0" stroke-linejoin="round" stroke-linecap="butt" d="m346.65228 334.81766l-50.48819 -48.031494" fill-rule="evenodd"/><path fill="#000000" fill-opacity="0.0" d="m447.58392 335.85703l52.724426 -49.07086" fill-rule="evenodd"/><path stroke="#000000" stroke-width="1.0" stroke-linejoin="round" stroke-linecap="butt" d="m447.58392 335.85703l52.724426 -49.07086" fill-rule="evenodd"/><path fill="#000000" fill-opacity="0.0" d="m257.22833 251.29134l0 0c0 -77.98956 63.13138 -141.21259 141.00787 -141.21259l0 0c37.397614 0 73.26352 14.877708 99.70764 41.360207c26.444092 26.482498 41.300232 62.400482 41.300232 99.85239l0 0c0 77.98958 -63.131348 141.2126 -141.00787 141.2126l0 0c-77.876495 0 -141.00787 -63.223022 -141.00787 -141.2126z" fill-rule="evenodd"/><path stroke="#000000" stroke-width="1.0" stroke-linejoin="round" stroke-linecap="butt" stroke-dasharray="4.0,3.0" d="m257.22833 251.29134l0 0c0 -77.98956 63.13138 -141.21259 141.00787 -141.21259l0 0c37.397614 0 73.26352 14.877708 99.70764 41.360207c26.444092 26.482498 41.300232 62.400482 41.300232 99.85239l0 0c0 77.98958 -63.131348 141.2126 -141.00787 141.2126l0 0c-77.876495 0 -141.00787 -63.223022 -141.00787 -141.2126z" fill-rule="evenodd"/><path fill="#000000" fill-opacity="0.0" d="m352.6063 261.67715l0 0c0 -77.98955 63.13138 -141.21259 141.00787 -141.21259l0 0c37.397614 0 73.26352 14.877716 99.70761 41.360214c26.444153 26.482498 41.300293 62.400467 41.300293 99.85237l0 0c0 77.98956 -63.13141 141.21262 -141.0079 141.21262l0 0c-77.876495 0 -141.00787 -63.223053 -141.00787 -141.21262z" fill-rule="evenodd"/><path stroke="#000000" stroke-width="1.0" stroke-linejoin="round" stroke-linecap="butt" stroke-dasharray="4.0,3.0" d="m352.6063 261.67715l0 0c0 -77.98955 63.13138 -141.21259 141.00787 -141.21259l0 0c37.397614 0 73.26352 14.877716 99.70761 41.360214c26.444153 26.482498 41.300293 62.400467 41.300293 99.85237l0 0c0 77.98956 -63.13141 141.21262 -141.0079 141.21262l0 0c-77.876495 0 -141.00787 -63.223053 -141.00787 -141.21262z" fill-rule="evenodd"/><path fill="#000000" fill-opacity="0.0" d="m163.61417 261.67715l0 0c0 -77.98955 63.13138 -141.21259 141.00787 -141.21259l0 0c37.397614 0 73.26352 14.877716 99.70764 41.360214c26.444092 26.482498 41.300232 62.400467 41.300232 99.85237l0 0c0 77.98956 -63.13138 141.21262 -141.00787 141.21262l0 0c-77.876495 0 -141.00787 -63.223053 -141.00787 -141.21262z" fill-rule="evenodd"/><path stroke="#000000" stroke-width="1.0" stroke-linejoin="round" stroke-linecap="butt" stroke-dasharray="4.0,3.0" d="m163.61417 261.67715l0 0c0 -77.98955 63.13138 -141.21259 141.00787 -141.21259l0 0c37.397614 0 73.26352 14.877716 99.70764 41.360214c26.444092 26.482498 41.300232 62.400467 41.300232 99.85237l0 0c0 77.98956 -63.13138 141.21262 -141.00787 141.21262l0 0c-77.876495 0 -141.00787 -63.223053 -141.00787 -141.21262z" fill-rule="evenodd"/><path fill="#cfe2f3" d="m689.8268 492.55118l0 0c0 -3.8703308 3.1375122 -7.0078735 7.0078735 -7.0078735l0 0c1.8585815 0 3.6410522 0.7383423 4.9553223 2.0525513c1.314209 1.3142395 2.0525513 3.0967102 2.0525513 4.9553223l0 0c0 3.8703308 -3.1375122 7.0078735 -7.0078735 7.0078735l0 0c-3.8703613 0 -7.0078735 -3.1375427 -7.0078735 -7.0078735z" fill-rule="evenodd"/><path stroke="#000000" stroke-width="1.0" stroke-linejoin="round" stroke-linecap="butt" d="m689.8268 492.55118l0 0c0 -3.8703308 3.1375122 -7.0078735 7.0078735 -7.0078735l0 0c1.8585815 0 3.6410522 0.7383423 4.9553223 2.0525513c1.314209 1.3142395 2.0525513 3.0967102 2.0525513 4.9553223l0 0c0 3.8703308 -3.1375122 7.0078735 -7.0078735 7.0078735l0 0c-3.8703613 0 -7.0078735 -3.1375427 -7.0078735 -7.0078735z" fill-rule="evenodd"/><path fill="#000000" fill-opacity="0.0" d="m704.0 485.5433l63.02362 0l0 15.149597l-63.02362 0z" fill-rule="evenodd"/><path fill="#000000" d="m714.1094 498.19812l0 -10.484375l1.4375 0l5.5 8.234375l0 -8.234375l1.328125 0l0 10.484375l-1.421875 0l-5.5 -8.25l0 8.25l-1.34375 0zm9.95929 -3.796875q0 -2.109375 1.171875 -3.125q0.984375 -0.84375 2.390625 -0.84375q1.578125 0 2.5625 1.03125q1.0 1.015625 1.0 2.828125q0 1.46875 -0.4375 2.3125q-0.4375 0.828125 -1.28125 1.296875q-0.84375 0.46875 -1.84375 0.46875q-1.59375 0 -2.578125 -1.015625q-0.984375 -1.03125 -0.984375 -2.953125zm1.328125 0q0 1.453125 0.625 2.1875q0.640625 0.71875 1.609375 0.71875q0.96875 0 1.59375 -0.71875q0.640625 -0.734375 0.640625 -2.234375q0 -1.40625 -0.640625 -2.125q-0.640625 -0.734375 -1.59375 -0.734375q-0.96875 0 -1.609375 0.71875q-0.625 0.71875 -0.625 2.1875zm12.229187 3.796875l0 -0.953125q-0.71875 1.125 -2.125 1.125q-0.90625 0 -1.671875 -0.5q-0.75 -0.5 -1.171875 -1.390625q-0.421875 -0.90625 -0.421875 -2.078125q0 -1.140625 0.375 -2.0625q0.390625 -0.921875 1.140625 -1.40625q0.765625 -0.5 1.703125 -0.5q0.6875 0 1.21875 0.296875q0.53125 0.28125 0.875 0.734375l0 -3.75l1.28125 0l0 10.484375l-1.203125 0zm-4.0625 -3.796875q0 1.46875 0.609375 2.1875q0.625 0.71875 1.453125 0.71875q0.84375 0 1.4375 -0.6875q0.59375 -0.6875 0.59375 -2.109375q0 -1.5625 -0.609375 -2.28125q-0.59375 -0.734375 -1.484375 -0.734375q-0.84375 0 -1.421875 0.703125q-0.578125 0.703125 -0.578125 2.203125zm12.494873 1.34375l1.328125 0.171875q-0.3125 1.171875 -1.171875 1.8125q-0.84375 0.640625 -2.171875 0.640625q-1.671875 0 -2.65625 -1.015625q-0.96875 -1.03125 -0.96875 -2.890625q0 -1.921875 0.984375 -2.96875q1.0 -1.0625 2.578125 -1.0625q1.515625 0 2.484375 1.03125q0.96875 1.03125 0.96875 2.921875q0 0.109375 -0.015625 0.34375l-5.65625 0q0.0625 1.25 0.703125 1.921875q0.640625 0.65625 1.59375 0.65625q0.703125 0 1.203125 -0.359375q0.5 -0.375 0.796875 -1.203125zm-4.234375 -2.078125l4.25 0q-0.09375 -0.953125 -0.484375 -1.4375q-0.625 -0.75 -1.609375 -0.75q-0.875 0 -1.484375 0.59375q-0.609375 0.59375 -0.671875 1.59375z" fill-rule="nonzero"/></g></svg>